<?xml version="1.0" encoding="UTF-8"?>
<svg xmlns="http://www.w3.org/2000/svg" version="1.1" viewBox="0 0 1024 1024">
  <!-- Generator: Adobe Illustrator 30.1.0, SVG Export Plug-In . SVG Version: 2.1.1 Build 136)  -->
  <defs>
    <style>
      .st0 {
        fill: #fff;
      }
    </style>
  </defs>
  <g id="Layer_2">
    <path class="st0" d="M817,716.6c-10.4,10.9-21.1,20.2-33.9,27.8-60,35.2-137,38-201.5,14-39-14.5-71.7-41.2-92.7-76.5-18.8-31.6-22.5-66.1-12.9-102.6-27.2,37.7-26,88.3-2,126.5,11.9,18.9,27.2,33.7,45.7,47.1-30.1-8.1-58.6-23.7-81.2-46.7h0c-53.5-54.3-51.5-129.1-.3-183.5,58.5-62.1,192.1-89.1,256.4-19.1-6.4-21.8-22.7-37.6-42-47.9-42.8-22.8-101-22.5-147.2-10.6-63.3,16.3-123.4,49.2-163,102.2-20.6,27.6-33.1,59.6-33.4,94.3-.2,24.4,4.9,48.3,19.8,68.2-8.1-29.2-9-55.6-1.2-83.9,14.3-52.1,49.1-96.2,94.1-121.2-39.4,46.2-53.7,108-31,162.9,22.7,54.9,72.4,88.4,125.2,108.6,21.8,8.4,43.3,12.7,66.9,18.6-48.6,8.7-95.8,10.5-144.4,10.7-64.7.3-134.8-3.9-194.3-30.1-40.7-17.9-78-51.3-75.1-99.5,2.6-44,32.6-83,68.1-110.2-27.4,50.6-34.7,108.5,10.7,155.2-1.1-6.5-4.1-11.2-5.9-16.9-17.4-56.9-2.6-111.9,30.9-159.6,24.5-34.9,60.1-57.7,92.8-84.2l26.1-21.1c17.3-14,117.2-71.2,144-58-6.1,5.1-13,7-19.6,10.3-18.6,9.2-37.5,17.8-54.2,32.1,68.1-28,159-56.5,230.5-36.9,14,3.8,48.8,15.9,40.7,36.2l-19.9-9.3c-35.3-16.5-75.7-19.1-113.3-11.4,61.2.8,123.8,19.2,159.9,70.9,36.1,52,10.8,101.9-3.4,95.6-7.1-3.1,12-24.9-2.6-59.3-8.1-19.1-21.4-36.1-38.2-47.7,14,17.2,24.3,33.7,27.8,54.5,4.7,27.3-3.9,54.1-23.5,73.8-19.5,19.6-46.3,29-74.7,25.7,11.6-6.2,21.6-13,28-24.2,10.1-17.6,6-39-10.6-51.2-16-11.8-35.9-14.3-55.4-11.1-33.8,5.5-59.3,31.4-62.8,65.6-5.2,50.4,38.1,93.3,80.9,113.8,59.8,28.6,128.3,30.4,190.7,8,1.3-2.7,1.3-2,1.2.1Z"/>
  </g>
  <g id="main">
    <path d="M954.7,320.3c-11.5-8-23.3-10.1-37.5-10.1H195.5c-25.1-.1-51.4,13.3-57,39.8l-46.3,210.9c-.1.6-.7,1-1.3.9-.6,0-1-.6-1-1.1V221.2c.1-9.4,11-17.4,19.9-17.4h248.2c10.8-.1,17.5,4.5,24.2,12.1,17.9,20.3,35.5,40.3,54.8,59.2,9.2,9,21.8,10,34.5,10h412.7c21.1-.1,23.8-31.5,2.8-34.3-.9-.1-1.9-.2-2.8-.2l-411.3-.3c-8.5,0-13.6-3.8-18.7-9.5l-40.4-45.1c-16.2-18.1-35.5-27.6-60.1-27.6H124c-14.6,0-27.1,1.2-40,8.1-17.2,9.1-31.9,26.9-31.9,48.2l-.5,562.7c0,30.2,15.6,55.3,45.1,64.6,11,3.5,21.9,4.2,34.7,4.1l678.4-.6c36,0,59.7-28.1,66.7-60l61.4-278.7,33.8-156.5c3.5-16.1-4.8-31.3-17-39.8ZM474,705.7c11.9,18.9,27.2,33.7,45.7,47.1-30.1-8.1-58.6-23.7-81.2-46.7h0c-53.5-54.3-51.5-129.1-.3-183.5,58.5-62.1,192.1-89.1,256.4-19.1-6.4-21.8-22.7-37.6-42-47.9-42.8-22.8-101-22.5-147.2-10.6-63.3,16.3-123.4,49.2-163,102.2-20.6,27.6-33.1,59.6-33.4,94.3-.2,24.4,4.9,48.3,19.8,68.2-8.1-29.2-9-55.6-1.2-83.9,14.3-52.1,49.1-96.2,94.1-121.2-39.4,46.2-53.7,108-31,162.9,22.7,54.9,72.4,88.4,125.2,108.6,21.8,8.4,43.3,12.7,66.9,18.6-48.6,8.7-95.8,10.5-144.4,10.7-64.7.3-134.8-3.9-194.3-30.1-40.7-17.9-78-51.3-75.1-99.5,2.6-44,32.6-83,68.1-110.2-27.4,50.6-34.7,108.5,10.7,155.2-1.1-6.5-4.1-11.2-5.9-16.9-17.4-56.9-2.6-111.9,30.9-159.6,24.5-34.9,60.1-57.7,92.8-84.2l26.1-21.1c17.3-14,117.2-71.2,144-58-6.1,5.1-13,7-19.6,10.3-18.6,9.2-37.5,17.8-54.2,32.1,68.1-28,159-56.5,230.5-36.9,14,3.8,48.8,15.9,40.7,36.2l-19.9-9.3c-35.3-16.5-75.7-19.1-113.3-11.4,61.2.8,123.8,19.2,159.9,70.9,36.1,52,10.8,101.9-3.4,95.6-7.1-3.1,12-24.9-2.6-59.3-8.1-19.1-21.4-36.1-38.2-47.7,14,17.2,24.3,33.7,27.8,54.5,4.7,27.3-3.9,54.1-23.5,73.8-19.5,19.6-46.3,29-74.7,25.7,11.6-6.2,21.6-13,28-24.2,10.1-17.6,6-39-10.6-51.2-16-11.8-35.9-14.3-55.4-11.1-33.8,5.5-59.3,31.4-62.8,65.6-5.2,50.4,38.1,93.3,80.9,113.8,59.8,28.6,128.3,30.4,190.7,8,1.3-2.7,1.3-2,1.2.1-10.4,10.9-21.1,20.2-33.9,27.8-60,35.2-137,38-201.5,14-39-14.5-71.7-41.2-92.7-76.5-18.8-31.6-22.5-66.1-12.9-102.6-27.2,37.7-26,88.3-2,126.5Z"/>
  </g>
</svg>