<?xml version="1.0" encoding="UTF-8"?>
<svg id="main" xmlns="http://www.w3.org/2000/svg" viewBox="0 0 1038.6 775.62">
  <defs>
    <style>
      .cls-1 {
        fill: currentColor;
      }
    </style>
  </defs>
  <path class="cls-1" d="M43.32,443.75v.18c0,2.8,4.04,3.22,4.61.48l50.16-239.33c6.25-29.81,35.92-44.96,64.22-44.95l813.93.11c16.02,0,29.35,2.32,42.32,11.39,13.69,9.58,23.05,26.76,19.14,44.88l-38.14,176.45-69.19,314.34c-7.92,36-34.7,67.61-75.27,67.65l-765.15.68c-14.4.01-26.68-.76-39.1-4.67C17.63,760.5-.03,732.26,0,698.15L.52,63.53c.02-24.03,16.57-44.13,36-54.42C51.09,1.39,65.22.11,81.66.1L340.86,0c27.71-.01,49.56,10.72,67.8,31.09l45.53,50.85c5.74,6.41,11.54,10.66,21.1,10.67l463.92.37c1.1,0,2.17.07,3.2.21,23.64,3.14,20.65,38.58-3.19,38.59l-465.47.13c-14.33,0-28.55-1.18-38.89-11.31-21.76-21.33-41.69-43.91-61.84-66.76-7.56-8.57-15.09-13.76-27.28-13.75l-279.98.13c-10.05,0-22.28,9.09-22.28,19.63l-.15,383.92ZM853.91,736.17c.1,0,.21,0,.31-.02,21.8-2.49,32.21-15.61,36.37-34.39l33.91-153,73.38-330.86c1.58-7.12,2.36-12.76-1.8-18.64-2.46-3.48-8.81-7.5-15.25-7.5H159.67c-.1.01-.2.02-.31.03-15.54,1.68-25.66,12.66-26.44,27.74,0,.09-.02.19-.03.28l-21.35,107.98-71.21,370.28c-2.97,15.45,4.76,29.09,19.02,34.34,9.14,3.37,18.23,3.8,29.01,3.8l765.56-.04Z"/>
  <path class="cls-1" d="M436.34,606.69c-60.3-61.3-58.13-145.6-.33-207,65.97-70.08,216.61-100.49,289.16-21.48-7.17-24.53-25.61-42.46-47.33-54.01-48.28-25.68-113.86-25.39-165.96-11.94-71.42,18.44-139.21,55.51-183.83,115.24-23.27,31.15-37.33,67.19-37.72,106.35-.27,27.47,5.54,54.47,22.31,76.92-9.09-32.9-10.18-62.71-1.4-94.59,16.16-58.73,55.34-108.54,106.16-136.74-44.45,52.08-60.51,121.78-34.94,183.7s81.69,99.68,141.26,122.49c24.63,9.43,48.85,14.27,75.46,21.02-54.84,9.78-108.01,11.82-162.82,12.06-73.02.31-151.99-4.41-219.12-33.89-45.93-20.17-88-57.88-84.74-112.22,2.98-49.67,36.81-93.62,76.85-124.28-30.87,57.04-39.15,122.35,12.05,175.03-1.22-7.33-4.65-12.58-6.64-19.08-19.62-64.13-2.98-126.15,34.83-179.97,27.68-39.39,67.74-65.06,104.63-94.93l29.4-23.8c19.54-15.82,132.16-80.25,162.43-65.39-6.92,5.76-14.66,7.93-22.13,11.65-20.99,10.43-42.34,20.11-61.16,36.23,76.82-31.53,179.27-63.76,259.94-41.65,15.78,4.33,55.07,17.95,45.9,40.85l-22.4-10.46c-39.86-18.61-85.36-21.58-127.84-12.85,69.03.85,139.68,21.62,180.3,79.99,40.77,58.59,12.18,114.91-3.79,107.78-7.95-3.55,13.54-28.14-2.97-66.86-9.18-21.52-24.18-40.69-43.06-53.83,15.82,19.35,27.39,38.04,31.39,61.46,5.26,30.81-4.4,60.97-26.48,83.18-21.98,22.11-52.2,32.7-84.3,28.99,13.1-7.03,24.33-14.7,31.53-27.27,11.37-19.85,6.7-43.95-11.98-57.74-18.03-13.31-40.43-16.18-62.49-12.57-38.17,6.26-66.86,35.46-70.87,74.04-5.9,56.81,42.95,105.2,91.26,128.28,67.49,32.25,144.73,34.34,215.07,8.99,1.46-3.04,1.44-2.21,1.35.13-11.67,12.32-23.77,22.83-38.22,31.3-67.68,39.65-154.55,42.81-227.3,15.74-43.98-16.36-80.81-46.45-104.55-86.31-21.24-35.66-25.37-74.5-14.52-115.68-30.63,42.49-29.32,99.55-2.23,142.7,13.41,21.36,30.67,38.03,51.48,53.09-33.9-9.18-66.05-26.7-91.63-52.69Z"/>
</svg>

